<?xml version="1.0" encoding="utf-8"?>
<!-- Generator: Adobe Illustrator 25.2.3, SVG Export Plug-In . SVG Version: 6.00 Build 0)  -->
<svg version="1.1" id="Layer_1" xmlns="http://www.w3.org/2000/svg" xmlns:xlink="http://www.w3.org/1999/xlink" x="0px" y="0px"
	 viewBox="0 0 498.1 116.3" enable-background="new 0 0 498.1 116.3" xml:space="preserve">
<g>
	<path fill="#FFFFFF" d="M320,82.3h-31.9v33h-16.6V34.6H324V48h-35.9v20.8H320V82.3z"/>
	<path fill="#FFFFFF" d="M351.3,115.2h-16.6V34.6h16.6V115.2z"/>
	<path fill="#FFFFFF" d="M408.5,94.1c0-3.1-1.1-5.5-3.3-7.2c-2.2-1.7-6.2-3.5-12-5.3c-5.8-1.9-10.3-3.7-13.7-5.5
		c-9.2-4.9-13.7-11.6-13.7-20c0-4.4,1.2-8.2,3.7-11.7c2.5-3.4,6-6.1,10.6-8c4.6-1.9,9.8-2.9,15.5-2.9c5.8,0,10.9,1,15.4,3.1
		c4.5,2.1,8,5,10.5,8.8c2.5,3.8,3.7,8.1,3.7,13h-16.6c0-3.7-1.2-6.6-3.5-8.6c-2.3-2-5.6-3.1-9.8-3.1c-4.1,0-7.2,0.9-9.5,2.6
		c-2.3,1.7-3.4,4-3.4,6.8c0,2.6,1.3,4.8,4,6.6c2.6,1.8,6.5,3.4,11.7,5c9.5,2.8,16.3,6.4,20.7,10.6c4.3,4.2,6.5,9.5,6.5,15.7
		c0,7-2.6,12.5-7.9,16.4c-5.3,4-12.4,6-21.3,6c-6.2,0-11.9-1.1-16.9-3.4c-5.1-2.3-9-5.4-11.7-9.3c-2.7-4-4-8.5-4-13.7H380
		c0,8.9,5.3,13.3,16,13.3c4,0,7-0.8,9.2-2.4C407.4,99.2,408.5,96.9,408.5,94.1z"/>
	<path fill="#FFFFFF" d="M436.4,115.2V34.6h24.8c7.1,0,13.4,1.6,19,4.8c5.6,3.2,10,7.7,13.1,13.6c3.1,5.9,4.7,12.6,4.7,20.1v3.7
		c0,7.5-1.5,14.2-4.6,20c-3.1,5.8-7.4,10.4-13,13.6c-5.6,3.2-11.9,4.8-19,4.9H436.4z M453,48v53.8h8c6.5,0,11.5-2.1,14.9-6.4
		c3.4-4.2,5.2-10.3,5.3-18.2V73c0-8.2-1.7-14.4-5.1-18.6c-3.4-4.2-8.4-6.3-14.9-6.3H453z"/>
</g>
<path id="fullLogo_2_" fill="#FFFFFF" d="M251.1,113.7l-52-7.6l25-14.3c0.3-0.1,0.4-0.5,0.3-0.7c-0.1-0.3-0.3-0.5-0.6-0.5h-28.9
	L236.2,58c0.3-0.2,0.3-0.6,0.2-0.8c-0.2-0.3-0.5-0.4-0.8-0.3l-48.8,19.4l14.5-24.9c0.1-0.3,0.1-0.6-0.1-0.8
	c-0.2-0.2-0.5-0.3-0.8-0.1l-24.9,14.4l19.4-48.7c0.1-0.3,0-0.6-0.3-0.8c-0.3-0.2-0.6-0.1-0.8,0.2l-32.5,41l0.1-28.9
	c0-0.3-0.2-0.6-0.5-0.6c-0.3-0.1-0.6,0-0.7,0.3l-8.7,15.2l0-6.9c0-0.3-0.1-0.7-0.4-0.9c-0.2-0.2-0.6-0.4-0.9-0.4h-7l-5-33.7
	c0-0.3-0.3-0.6-0.6-0.6h0c-0.3,0-0.6,0.2-0.6,0.6l-5.1,33.7h-12.8l-4.1-7.2c-0.1-0.3-0.4-0.4-0.7-0.3c-0.3,0.1-0.5,0.3-0.5,0.6
	l0,6.9H95.9L81,15.4c-0.2-0.3-0.6-0.3-0.8-0.2c-0.3,0.2-0.4,0.5-0.3,0.8L87,34.3H1.3c-0.6,0-1.1,0.4-1.2,0.9c-0.2,0.5,0,1.1,0.5,1.5
	l21.9,16.2v43.6L0.5,112.6c-0.5,0.3-0.6,0.9-0.5,1.5c0.2,0.5,0.7,0.9,1.2,0.9h86.8h4.5h5.5c0.4,0,0.7-0.3,0.7-0.7
	c0-21,17.1-38,38-38c21,0,38,17.1,38,38c0,0.4,0.3,0.7,0.7,0.7H251c0.3,0,0.6-0.3,0.7-0.6C251.6,114.1,251.4,113.8,251.1,113.7z
	 M92.2,60.7L73.8,49.9c-0.3-0.2-0.6-0.1-0.8,0.1c-0.2,0.2-0.3,0.5-0.1,0.8l8.2,14.5h-9.6V49.1h21.2l3.5,9.1L92.2,60.7z M79.1,90.5
	l-7.5-0.1v-6L79.1,90.5z M113.2,56.3l-5.6-7.2h5.7L113.2,56.3z M24.5,98.2c0.3-0.2,0.5-0.6,0.5-1.1V52.2c0-0.4-0.2-0.8-0.5-1.1
	L5.3,36.9h143.3l0,31.6l-28-21.7c-0.2-0.2-0.5-0.3-0.8-0.3H70.2c-0.7,0-1.3,0.6-1.3,1.3v18.7c0,0.7,0.6,1.3,1.3,1.3h14.5
	c0.2,0,0.5-0.1,0.7-0.2l16.8-9.8l0,31.2l-17.3-9.9C84.7,79,84.5,79,84.3,79h-14c-0.7,0-1.3,0.6-1.3,1.3v16.8c0,0.4,0.2,0.8,0.5,1.1
	l19.2,14.2H5.3L24.5,98.2z"/>
<path id="fullLogo_1_" fill="#FFFFFF" d="M237.4,104.2c0-0.7,0.1-1.3,0.5-1.8c0.3-0.6,0.7-1,1.2-1.3c0.5-0.3,1.1-0.5,1.7-0.5
	c0.6,0,1.2,0.2,1.7,0.5c0.5,0.3,0.9,0.8,1.2,1.3c0.3,0.6,0.5,1.2,0.5,1.8c0,0.6-0.1,1.2-0.4,1.8c-0.3,0.6-0.7,1-1.2,1.3
	c-0.5,0.3-1.1,0.5-1.8,0.5c-0.6,0-1.2-0.2-1.7-0.5c-0.5-0.3-0.9-0.8-1.2-1.3C237.5,105.4,237.4,104.8,237.4,104.2 M237.9,104.2
	c0,0.6,0.1,1.1,0.4,1.5c0.3,0.5,0.6,0.8,1,1.1c0.4,0.3,0.9,0.4,1.4,0.4c0.5,0,1-0.1,1.4-0.4c0.4-0.3,0.8-0.6,1-1.1
	c0.3-0.5,0.4-1,0.4-1.5c0-0.5-0.1-1.1-0.4-1.5c-0.3-0.5-0.6-0.8-1-1.1c-0.4-0.3-0.9-0.4-1.4-0.4c-0.5,0-1,0.1-1.4,0.4
	c-0.4,0.3-0.8,0.6-1,1.1C238.1,103.1,237.9,103.7,237.9,104.2 M240.1,104.6v1.6h-0.7v-4.1h1.3c0.5,0,0.9,0.1,1.1,0.3
	c0.3,0.2,0.4,0.5,0.4,0.9c0,0.4-0.2,0.7-0.6,0.9c0.4,0.2,0.6,0.5,0.6,1v0.3c0,0.3,0,0.5,0.1,0.6v0.1h-0.7c0-0.1-0.1-0.3-0.1-0.6
	c0-0.3,0-0.5,0-0.5c-0.1-0.3-0.3-0.5-0.6-0.5H240.1z M240.1,103.9h0.8c0.2,0,0.4-0.1,0.6-0.2c0.1-0.1,0.2-0.2,0.2-0.4
	c0-0.2-0.1-0.4-0.2-0.5c-0.1-0.1-0.3-0.1-0.7-0.1h-0.7V103.9z"/>
</svg>
