<?xml version="1.0" encoding="utf-8"?>
<!-- Generator: Adobe Illustrator 25.2.3, SVG Export Plug-In . SVG Version: 6.00 Build 0)  -->
<svg version="1.1" id="Layer_1" xmlns="http://www.w3.org/2000/svg" xmlns:xlink="http://www.w3.org/1999/xlink" x="0px" y="0px"
	 viewBox="0 0 251.6 115" enable-background="new 0 0 251.6 115" xml:space="preserve">
<path id="fullLogo_2_" fill="#FFFFFF" d="M251.1,113.7l-52-7.6l25-14.3c0.3-0.1,0.4-0.5,0.3-0.7c-0.1-0.3-0.3-0.5-0.6-0.5h-28.9
	L236.2,58c0.3-0.2,0.3-0.6,0.2-0.8c-0.2-0.3-0.5-0.4-0.8-0.3l-48.8,19.4l14.5-24.9c0.1-0.3,0.1-0.6-0.1-0.8
	c-0.2-0.2-0.5-0.3-0.8-0.1l-24.9,14.4l19.4-48.7c0.1-0.3,0-0.6-0.3-0.8c-0.3-0.2-0.6-0.1-0.8,0.2l-32.5,41l0.1-28.9
	c0-0.3-0.2-0.6-0.5-0.6c-0.3-0.1-0.6,0-0.7,0.3l-8.7,15.2l0-6.9c0-0.3-0.1-0.7-0.4-0.9c-0.2-0.2-0.6-0.4-0.9-0.4h-7l-5-33.7
	c0-0.3-0.3-0.6-0.6-0.6h0c-0.3,0-0.6,0.2-0.6,0.6l-5.1,33.7h-12.8l-4.1-7.2c-0.1-0.3-0.4-0.4-0.7-0.3c-0.3,0.1-0.5,0.3-0.5,0.6
	l0,6.9H95.9L81,15.4c-0.2-0.3-0.6-0.3-0.8-0.2c-0.3,0.2-0.4,0.5-0.3,0.8L87,34.3H1.3c-0.6,0-1.1,0.4-1.2,0.9c-0.2,0.5,0,1.1,0.5,1.5
	l21.9,16.2v43.6L0.5,112.6c-0.5,0.3-0.6,0.9-0.5,1.5c0.2,0.5,0.7,0.9,1.2,0.9h86.8h4.5h5.5c0.4,0,0.7-0.3,0.7-0.7
	c0-21,17.1-38,38-38c21,0,38,17.1,38,38c0,0.4,0.3,0.7,0.7,0.7H251c0.3,0,0.6-0.3,0.7-0.6C251.6,114.1,251.4,113.8,251.1,113.7z
	 M92.2,60.7L73.8,49.9c-0.3-0.2-0.6-0.1-0.8,0.1c-0.2,0.2-0.3,0.5-0.1,0.8l8.2,14.5h-9.6V49.1h21.2l3.5,9.1L92.2,60.7z M79.1,90.5
	l-7.5-0.1v-6L79.1,90.5z M113.2,56.3l-5.6-7.2h5.7L113.2,56.3z M24.5,98.2c0.3-0.2,0.5-0.6,0.5-1.1V52.2c0-0.4-0.2-0.8-0.5-1.1
	L5.3,36.9h143.3l0,31.6l-28-21.7c-0.2-0.2-0.5-0.3-0.8-0.3H70.2c-0.7,0-1.3,0.6-1.3,1.3v18.7c0,0.7,0.6,1.3,1.3,1.3h14.5
	c0.2,0,0.5-0.1,0.7-0.2l16.8-9.8l0,31.2l-17.3-9.9C84.7,79,84.5,79,84.3,79h-14c-0.7,0-1.3,0.6-1.3,1.3v16.8c0,0.4,0.2,0.8,0.5,1.1
	l19.2,14.2H5.3L24.5,98.2z"/>
<path id="fullLogo_1_" fill="#FFFFFF" d="M237.4,104.2c0-0.7,0.1-1.3,0.5-1.8c0.3-0.6,0.7-1,1.2-1.3c0.5-0.3,1.1-0.5,1.7-0.5
	c0.6,0,1.2,0.2,1.7,0.5c0.5,0.3,0.9,0.8,1.2,1.3c0.3,0.6,0.5,1.2,0.5,1.8c0,0.6-0.1,1.2-0.4,1.8c-0.3,0.6-0.7,1-1.2,1.3
	c-0.5,0.3-1.1,0.5-1.8,0.5c-0.6,0-1.2-0.2-1.7-0.5c-0.5-0.3-0.9-0.8-1.2-1.3C237.5,105.4,237.4,104.8,237.4,104.2 M237.9,104.2
	c0,0.6,0.1,1.1,0.4,1.5c0.3,0.5,0.6,0.8,1,1.1c0.4,0.3,0.9,0.4,1.4,0.4c0.5,0,1-0.1,1.4-0.4c0.4-0.3,0.8-0.6,1-1.1
	c0.3-0.5,0.4-1,0.4-1.5c0-0.5-0.1-1.1-0.4-1.5c-0.3-0.5-0.6-0.8-1-1.1c-0.4-0.3-0.9-0.4-1.4-0.4c-0.5,0-1,0.1-1.4,0.4
	c-0.4,0.3-0.8,0.6-1,1.1C238.1,103.1,237.9,103.7,237.9,104.2 M240.1,104.6v1.6h-0.7v-4.1h1.3c0.5,0,0.9,0.1,1.1,0.3
	c0.3,0.2,0.4,0.5,0.4,0.9c0,0.4-0.2,0.7-0.6,0.9c0.4,0.2,0.6,0.5,0.6,1v0.3c0,0.3,0,0.5,0.1,0.6v0.1h-0.7c0-0.1-0.1-0.3-0.1-0.6
	c0-0.3,0-0.5,0-0.5c-0.1-0.3-0.3-0.5-0.6-0.5H240.1z M240.1,103.9h0.8c0.2,0,0.4-0.1,0.6-0.2c0.1-0.1,0.2-0.2,0.2-0.4
	c0-0.2-0.1-0.4-0.2-0.5c-0.1-0.1-0.3-0.1-0.7-0.1h-0.7V103.9z"/>
</svg>
